<svg width="14" height="16" fill="none" xmlns="http://www.w3.org/2000/svg"><path d="M7 7.979c.417 0 .77-.146 1.062-.437.292-.292.438-.646.438-1.063 0-.417-.146-.77-.438-1.062A1.444 1.444 0 007 4.979c-.417 0-.77.146-1.062.438A1.444 1.444 0 005.5 6.479c0 .417.146.771.438 1.063.291.291.645.437 1.062.437zm0 8a.967.967 0 01-.604-.187c-1.972-1.805-3.44-3.462-4.406-4.969C1.025 9.316.542 7.924.542 6.646c0-2.028.646-3.639 1.937-4.833C3.771.618 5.278.021 7 .021s3.229.597 4.521 1.792c1.291 1.194 1.937 2.805 1.937 4.833 0 1.278-.483 2.67-1.448 4.177-.965 1.507-2.434 3.164-4.406 4.969a.732.732 0 01-.281.146 1.267 1.267 0 01-.323.041z" fill="#E46414" fill-opacity=".2"/></svg>