<svg width="133" height="55" fill="none" xmlns="http://www.w3.org/2000/svg"><path d="M50.45 40.395h5.1a.85.85 0 01.68.3.88.88 0 01.21.73l-.13 1a1.12 1.12 0 01-.4.73 1.14 1.14 0 01-.77.31h-5.09l.18-1.38.22-1.69zm.62-4.75l.18-1.38h11.23l.4-3.06H46.53l-2 15.32H57.8c.412-.002.82-.084 1.2-.24a3.86 3.86 0 001.07-.66c.315-.29.581-.627.79-1a3.1 3.1 0 00.39-1.18l.31-2.31a6.244 6.244 0 000-1.89 2.43 2.43 0 00-.51-1.17 1.94 1.94 0 00-.9-.59 3.678 3.678 0 00-1.15-.14h-8.15l.22-1.7zm17.04 4.75h6.13l-.8 6.13h5.1l1.6-12.26a2.69 2.69 0 00-.08-1.18 2.639 2.639 0 00-.54-1 2.498 2.498 0 00-.9-.67 2.74 2.74 0 00-1.16-.24H67.27c-.421 0-.839.081-1.23.24a3.422 3.422 0 00-1.05.67 3.912 3.912 0 00-.79 1c-.218.36-.357.762-.41 1.18l-1.6 12.26h5.12l.58-4.43.22-1.7zm.62-4.75v-.35a1.23 1.23 0 01.39-.73c.202-.194.471-.301.75-.3H74a.89.89 0 01.878.64.88.88 0 01.022.39l-.27 2.05H68.5l.23-1.7z" fill="#002969"/><path fill-rule="evenodd" clip-rule="evenodd" d="M80.05 46.524h11.6a3.2 3.2 0 001.22-.24 3.67 3.67 0 001.07-.66 3.83 3.83 0 00.79-1c.207-.364.343-.765.4-1.18l.3-2.31a2.65 2.65 0 00-.13-1.24 2.59 2.59 0 00-.61-1 4.84 4.84 0 00.88-1c.242-.385.399-.818.46-1.27l.3-2.31a2.7 2.7 0 00-.08-1.18 2.791 2.791 0 00-.54-1 2.59 2.59 0 00-.9-.67 2.77 2.77 0 00-1.16-.24H82l-.39 3.06h8.57a.891.891 0 01.878.642.88.88 0 01.022.388l-.13 1a1.13 1.13 0 01-.41.74 1.11 1.11 0 01-.76.3h-4.12l-.4 3h4.12a.891.891 0 01.69.3 1 1 0 01.21.73l-.14 1a1.12 1.12 0 01-.4.73 1.14 1.14 0 01-.77.31h-8.55l-.37 3.1z" fill="#002969"/><path d="M101.55 42.435l1.45-11.23h-5.1l-1.61 12.27c-.053.395-.02.798.1 1.18.115.364.298.704.54 1 .241.282.542.507.88.66.365.162.76.244 1.16.24h13.27l2-15.32h-5.1l-1.6 12.27h-5.13a.841.841 0 01-.67-.31.897.897 0 01-.2-.73m17.6-.031l.93-7.14c.042-.28.18-.539.39-.73.205-.194.478-.302.76-.3h4.08a.863.863 0 01.69.3.879.879 0 01.21.73l-.13 1h5.1l.26-2a2.691 2.691 0 00-.08-1.18 2.494 2.494 0 00-.54-1 2.455 2.455 0 00-.89-.67 2.78 2.78 0 00-1.17-.24h-10.19a3.2 3.2 0 00-1.22.24 3.47 3.47 0 00-1.06.67c-.313.29-.58.628-.79 1a3.002 3.002 0 00-.4 1.18l-1.21 9.21c-.054.396-.019.8.1 1.18.115.365.298.705.54 1 .239.285.54.51.88.66.365.163.761.245 1.16.24h10.19c.422.002.84-.08 1.23-.24a3.8 3.8 0 001.07-.66 4.04 4.04 0 00.79-1c.2-.366.332-.766.39-1.18l.27-2h-5.1l-.13 1a1.227 1.227 0 01-1.17 1H120a.828.828 0 01-.67-.31.897.897 0 01-.2-.73" fill="#002969"/><path fill-rule="evenodd" clip-rule="evenodd" d="M49.27 16.655c-1.79-.55-4.88.38-5.09.42-12.94 2.92-34.28-3.91-34.35-3.93-2.28-.34-2.09.75-1 .89.07 0 26.82 8.14 34.43 5.79l6.01-3.17zm74 10.18c-19.38-.25-31-.49-39.82 1.72-2 .5-.17-3.31.67-5.13.15-.31 0-.39-.29-.26-4.43 1.52-20 4.17-30.32 2.1-15.24 8.36-36.66 13.16-53.51 18.86a1.44 1.44 0 01.68-1.23c16.18-7.27 31.61-14.43 42.46-22.67l6.94-3.69L68 12.185c7.17-1.76 13.93-4.89 21.09-6.73 3.37-.87 9.52-2 13-2.63.85-2.5 1.19-3.77 3.67-2 5.82.19 7.45.27 12.12 4.36 3.91 1.08.25 5.74-1.94 6.63-2.93 1.2-5.34.13-8.3 1.21-1.66.6-6 .4-7 2-1.08 1.89-2.67 4.67-3.66 6.61l29.27 4.4c.35.07.35.06 0 .25a4.81 4.81 0 01-2.98.55z" fill="#fff"/><mask id="mask0_1542_4990" style="mask-type:luminance" maskUnits="userSpaceOnUse" x="0" y="0" width="127" height="45"><path d="M49.27 16.655c-1.79-.55-4.88.38-5.09.42-12.94 2.92-34.28-3.91-34.35-3.93-2.28-.34-2.09.75-1 .89.07 0 26.82 8.14 34.43 5.79l6.01-3.17zm74 10.18c-19.38-.25-31-.49-39.82 1.72-2 .5-.17-3.31.67-5.13.15-.31 0-.39-.29-.26-4.43 1.52-20 4.17-30.32 2.1-15.24 8.36-36.66 13.16-53.51 18.86a1.44 1.44 0 01.68-1.23c16.18-7.27 31.61-14.43 42.46-22.67l6.94-3.69L68 12.185c7.17-1.76 13.93-4.89 21.09-6.73 3.37-.87 9.52-2 13-2.63.85-2.5 1.19-3.77 3.67-2 5.82.19 7.45.27 12.12 4.36 3.91 1.08.25 5.74-1.94 6.63-2.93 1.2-5.34.13-8.3 1.21-1.66.6-6 .4-7 2-1.08 1.89-2.67 4.67-3.66 6.61l29.27 4.4c.35.07.35.06 0 .25a4.81 4.81 0 01-2.98.55z" fill="#fff"/></mask><g mask="url(#mask0_1542_4990)" fill-rule="evenodd" clip-rule="evenodd" fill="#6F6F6E"><path d="M113.69-.105h-2.36v2.36h2.36v-2.36zm-2.83 0h-2.36v2.36h2.36v-2.36zm-2.859 0h-2.36v2.36h2.36v-2.36zm-2.781 0h-2.37v2.36h2.37v-2.36zm15.67 2.1h-6.74v3h6.74v-3zm-7.2.69h-2.36v2.36h2.36v-2.36zm-2.83 0h-2.36v2.36h2.36v-2.36zm-2.859 0h-2.36v2.36h2.36v-2.36zm-2.781 0h-2.37v2.36h2.37v-2.36zm-2.83 0H100v2.36h2.36v-2.36m-2.79 0H97.2v2.36h2.37v-2.36zm-2.83 0h-3.4v2.36h3.4v-2.36z"/><path d="M93.92 2.685h-4.79v2.36h4.79v-2.36zm26.49 2.819H117v2.39h3.44v-2.39m-3.93 0h-2.36v2.39h2.36v-2.39zm-2.82 0h-2.36v2.39h2.36v-2.39zm-2.83 0h-2.36v2.39h2.36v-2.39zm-2.859 0h-2.36v2.39h2.36v-2.39zm-2.781 0h-2.37v2.39h2.37v-2.39zm-2.83 0H100v2.39h2.36v-2.39m-2.79 0H97.2v2.39h2.37v-2.39zm-2.83 0h-2.36v2.39h2.36v-2.39zm-2.82 0h-2.36v2.39h2.36v-2.39zm-2.83 0h-2.36v2.39h2.36v-2.39zm-2.82 0h-2.36v2.39h2.36v-2.39zm-2.82 0h-4.51v2.39h4.51v-2.39zm33.89 2.83H117v3.89h2.37v-3.89m-2.86 0h-2.36v2.36h2.36v-2.36zm-2.82 0h-2.36v2.36h2.36v-2.36zm-2.83 0h-2.36v2.36h2.36v-2.36zm-2.859 0h-2.36v2.36h2.36v-2.36zm-2.781 0h-2.37v2.36h2.37v-2.36zm-2.83 0H100v2.36h2.36v-2.36m-2.79 0H97.2v2.36h2.37v-2.36zm-2.83 0h-2.36v2.36h2.36v-2.36zm-2.82 0h-2.36v2.36h2.36v-2.36zm-2.83 0h-2.36v2.36h2.36v-2.36zm-2.82 0h-2.36v2.36h2.36v-2.36zm-2.82 0h-2.37v2.36h2.37v-2.36zm-2.83 0h-2.36v2.36h2.36v-2.36zm-2.82 0h-2.37v2.36h2.37v-2.36zm-2.8 0h-4.53v2.36H77v-2.36zm39.51 2.82h-2.36v2.36h2.36v-2.36zm-2.82 0h-2.36v2.36h2.36v-2.36zm-2.83 0h-2.36v2.36h2.36v-2.36zm-2.859 0h-2.36v2.36h2.36v-2.36zm-2.781 0h-2.37v3.82h2.37v-3.82zm-2.83 0H100v2.36h2.36v-2.36m-2.79 0H97.2v2.36h2.37v-2.36zm-2.83 0h-2.36v2.36h2.36v-2.36zm-2.82 0h-2.36v2.36h2.36v-2.36zm-2.83 0h-2.36v2.36h2.36v-2.36zm-2.82 0h-2.36v2.36h2.36v-2.36zm-2.82 0h-2.37v2.36h2.37v-2.36zm-2.83 0h-2.36v2.36h2.36v-2.36zm-2.82 0h-2.37v2.36h2.37v-2.36zm-2.8 0h-2.36v2.36H77v-2.36zm-2.85 0h-2.36v2.36h2.36v-2.36zm-2.82 0H69v2.36h2.37v-2.36m-2.87 0h-4v2.36h4v-2.36z"/><path d="M65.68 11.154h-2.37v2.36h2.37v-2.36zm-56.49 0H6.83v4.74h2.36v-4.74zm93.2 2.821H100v2.37h2.36v-2.37m-2.79 0H97.2v2.37h2.37v-2.37zm-2.83 0h-2.36v2.37h2.36v-2.37zm-2.82 0h-2.36v2.37h2.36v-2.37zm-2.83 0h-2.36v2.37h2.36v-2.37zm-2.82 0h-2.36v2.37h2.36v-2.37zm-2.82 0h-2.37v2.37h2.37v-2.37zm-2.83 0h-2.36v2.37h2.36v-2.37zm-2.82 0h-2.37v2.37h2.37v-2.37zm-2.8 0h-2.36v2.37H77v-2.37zm-2.85 0h-2.36v2.37h2.36v-2.37zm-2.82 0H69v2.37h2.37v-2.37m-2.87 0h-2.36v2.37h2.36v-2.37zm-2.82 0h-2.37v2.37h2.37v-2.37zm-2.83-1.71h-2.36v4.08h2.36v-4.08zM60 13.975h-2.33v2.37H60v-2.37zm-2.8 0h-4.68v2.37h4.68v-2.37z"/><path d="M54.38 13.975H52v2.37h2.36v-2.37m-2.8 1.19h-2.37c.085.391.227.769.42 1.12.16.46-.06.34-.15.52a1.759 1.759 0 00-.27.72h2.37v-2.36zm-28.25-1.19H21v5.19h2.36v-5.19m-2.87 0h-2.36v5.19h2.36v-5.19zm-2.82 0H15.3v3.48h2.37v-3.48zm-2.83 0h-2.36v2.37h2.36v-2.37zM12 12.335H9.65v4H12v-4zm87.57 4.47H97.2v2.36h2.37v-2.36zm-2.83 0h-2.36v2.36h2.36v-2.36zm-2.82 0h-2.36v2.36h2.36v-2.36zm-2.83 0h-2.36v2.36h2.36v-2.36zm-2.82 0h-2.36v2.36h2.36v-2.36zm-2.82 0h-2.37v2.36h2.37v-2.36zm-2.83 0h-2.36v2.36h2.36v-2.36zm-2.82 0h-2.37v2.36h2.37v-2.36zm-2.8 0h-2.36v2.36H77v-2.36zm-2.85 0h-2.36v2.36h2.36v-2.36zm-2.82 0H69v2.36h2.37v-2.36m-2.87 0h-2.36v2.36h2.36v-2.36zm-2.82 0h-2.37v2.36h2.37v-2.36zm-2.83 0h-2.36v2.36h2.36v-2.36zm-2.85 0h-2.33v2.36H60v-2.36zm-2.8 0h-2.36v2.36h2.36v-2.36zm-2.82 0H52v2.36h2.36v-2.36"/><path d="M51.56 16.805h-2.37v2.36h2.37v-2.36zm-2.83-1.261h-2.36v3.62h2.36v-3.62zm-2.82.67h-2.37v3.45c.45 0 .89-.5 1.33-.5l1-.55v-2.4m-2.79.591h-2.36v4h2.36v-4zm-2.82 0H37.9v4h2.36v-4zm-2.83 0h-2.36v4h2.36v-4zm-2.82 0h-2.36v4h2.36v-4zm-2.82 0h-2.37v3.38h2.37v-3.38zm-2.79 0h-2.4v2.36H29v-2.36zm-2.86-1h-2.37v3.36h2.37v-3.36zm-2.83 1H21v2.36h2.36v-2.36m-2.87 0h-2.36v2.36h2.36v-2.36zm80.08 2.82h-6.19v2.36h6.19v-2.36zm-6.65 0h-2.36v2.36h2.36v-2.36zm-2.83 0h-2.36v2.36h2.36v-2.36zm-2.82 0h-2.36v2.36h2.36v-2.36zm-2.82 0h-2.37v2.36h2.37v-2.36zm-2.83 0h-2.36v2.36h2.36v-2.36zm-2.82 0h-2.37v2.36h2.37v-2.36zm-2.8 0h-2.36v2.36H77v-2.36zm-2.85 0h-2.36v2.36h2.36v-2.36zm-2.82 0H69v2.36h2.37v-2.36m-2.87 0h-2.36v2.36h2.36v-2.36zm-2.82 0h-2.37v2.36h2.37v-2.36zm-2.83 0h-2.36v2.36h2.36v-2.36zm-2.85 0h-2.33v2.36H60v-2.36zm-2.8 0h-2.36v2.36h2.36v-2.36zm-2.82 0H52v2.36h2.36v-2.36m-2.8 0h-2.37v2.36h2.37v-2.36zm-2.83 0h-2.36v2.36h2.36v-2.36z"/><path d="M45.91 18.615a6.206 6.206 0 00-2.37 1.49v1.88h2.37v-3.37zm-2.83 1.01h-2.36v2.36h2.36v-2.36zm-2.82 0H37.9v2.36h2.36v-2.36zm-2.83 0h-2.36v2.36h2.36v-2.36zm-2.82 0h-2.36v2.36h2.36v-2.36zm81.9 2.819h-2.36v2.37h2.36v-2.37z"/><path d="M115.33 22.444h-4v2.37h4v-2.37zm-4.47 0h-2.36v2.37h2.36v-2.37zm-2.859 0h-2.36v2.37h2.36v-2.37zm-2.781 0h-2.37v2.37h2.37v-2.37zm-2.83 0H100v2.37h2.36v-2.37m-2.79 0H97.2v2.37h2.37v-2.37zm-2.83 0h-2.36v2.37h2.36v-2.37zm-2.82 0h-2.36v2.37h2.36v-2.37zm-2.83 0h-2.36v2.37h2.36v-2.37zm-2.82 0h-2.36v2.37h2.36v-2.37zm-2.82 0h-2.37v2.37h2.37v-2.37zm-2.83 0h-2.36v2.37h2.36v-2.37zm-2.82 0h-2.37v2.37h2.37v-2.37zm-2.8 0h-2.36v3.2H77v-3.2zm-2.85 0h-2.36v2.37h2.36v-2.37zm-2.82 0H69v2.37h2.37v-2.37m-2.87 0h-2.36v2.37h2.36v-2.37zm-2.82 0h-2.37v2.37h2.37v-2.37zm-2.83 0h-2.36v2.37h2.36v-2.37zm-2.85 0h-2.33v2.37H60v-2.37zm-2.8 0h-2.36v2.37h2.36v-2.37zm-2.82 0H52v2.37h2.36v-2.37m-2.8 0h-2.37v2.37h2.37v-2.37zm-2.83 0h-2.36v2.37h2.36v-2.37zm-2.82 0h-2.37v2.37h2.37v-2.37zm-2.83 0h-2.36v2.37h2.36v-2.37zm-2.82 0h-5.91v2.37h5.91v-2.37zm87.55 2.83h-5.19v2.36h5.19v-2.36zm-5.649-.31h-2.36v2.36h2.36v-2.36zm-2.821-.619H117v3.29h2.37v-3.29m-2.86.929h-2.36v2.36h2.36v-2.36zm-2.82 0h-2.36v2.36h2.36v-2.36zm-2.83 0h-2.36v2.36h2.36v-2.36zm-2.859 0h-2.36v2.36h2.36v-2.36zm-2.781 0h-2.37v2.36h2.37v-2.36zm-2.83 0H100v2.36h2.36v-2.36m-2.79 0H97.2v2.36h2.37v-2.36zm-2.83 0h-2.36v2.36h2.36v-2.36zm-2.82 0h-2.36v2.36h2.36v-2.36zm-2.83 0h-2.36v2.36h2.36v-2.36zm-2.82 0h-2.36v4.48h2.36v-4.48zm-2.82 0H81.7v4.48h3.75v-4.48zm-11.07 0H69v2.36h5.42v-2.36m-5.92 0h-2.36v2.36h2.36v-2.36zm-2.82 0h-2.37v2.36h2.37v-2.36zm-2.83 0h-2.36v2.36h2.36v-2.36zm-2.85 0h-5.16v2.36H60v-2.36z"/><path d="M57.2 25.274h-2.36v2.36h2.36v-2.36zm-3.71 0H52v2.36h2.36c0-.79-.89-1.57-.89-2.36m-1.91 0h-2.37v2.36h2.37v-2.36zm-2.83 0h-2.36v2.36h2.36v-2.36zm-2.82 0h-2.37v2.36h2.37v-2.36zm-2.83 0h-2.36v2.36h2.36v-2.36zm-2.82 0H37.9v2.36h2.36v-2.36zm-2.83 0h-2.36v2.36h2.36v-2.36zm-2.82 0h-2.36v2.36h2.36v-2.36zm14.5 2.821h-5.57v2.36h5.57v-2.36zm-6.03 0h-2.36v2.36h2.36v-2.36zm-2.82 0H37.9v2.36h2.36v-2.36zm-2.83 0h-2.36v2.36h2.36v-2.36zm-2.82 0h-2.36v2.36h2.36v-2.36zm-2.82-.95h-2.37v3.31h2.37v-3.31zm-2.79.95h-2.4v2.36H29v-2.36zm14 2.8h-5.1v2.37H43v-2.37zm-5.57 0h-2.36v2.37h2.36v-2.37zm-2.82 0h-2.36v2.37h2.36v-2.37zm-2.82 0h-2.37v2.37h2.37v-2.37zm-2.79 0h-2.4v2.37H29v-2.37zm-2.86 0h-2.37v2.37h2.37v-2.37zm-2.83 0H21v2.37h2.36v-2.37m11.2 2.85h-5.14v2.36h5.14v-2.36zm-5.56 0h-2.4v2.36H29v-2.36zm-2.86 0h-2.37v5.66h2.37v-5.66zm-2.83 0H21v2.36h2.36v-2.36m-2.87-.85h-2.36v3.18h2.36v-3.18zm-2.82.85H15.3v2.36h2.37v-2.36zm5.64 2.82H21v2.33h2.36v-2.33m-2.87 0h-2.36v2.33h2.36v-2.33zm-2.82 0H15.3v5.12h2.37v-5.12zm-2.83 0h-2.36v2.33h2.36v-2.33zm-2.84 0H9.65v2.33H12v-2.33zm2.84 2.83h-2.36v2.36h2.36v-2.36zm-2.84 0H9.65v2.36H12v-2.36zm-2.81-.911H6.83v4.41h2.36v-4.41zm-2.82.911H2.72v2.36h3.65v-2.36zm0 2.819H-.56v2.36h6.93v-2.36z"/><path d="M3.54 42.214h-5.18v2.36h5.18v-2.36z"/><path d="M.72 42.214h-2.36v2.36H.72v-2.36z"/></g><path d="M127.67 53.094h1l.66-5.2h-8.74a1.278 1.278 0 00-1.4 1.28l-.31 2.46a.475.475 0 01-.46.44h-.22l-.13 1h.39a1.284 1.284 0 001.319-.676c.081-.156.129-.328.141-.504l.31-2.52a.43.43 0 01.47-.43h7.49l-.52 4.15zm-14 0h1l.66-5.2h-8.74a1.278 1.278 0 00-1.4 1.28l-.31 2.46a.475.475 0 01-.46.44h-.22l-.13 1h.4a1.277 1.277 0 001.4-1.18l.31-2.52a.43.43 0 01.47-.43h7.49l-.47 4.15zM92 50.384h7.89l.13-1c0-.27-.09-.41-.36-.41H92.6a.44.44 0 00-.47.43l-.13.98zm8.6 2.71h-1l.21-1.67h-7.89l-.21 1.67h-1l.49-3.91a1.3 1.3 0 011.33-1.29H100c.84 0 1.2.43 1.09 1.3l-.49 3.9zm-18.84 0h-1.24l.52-4.16h-5.2l.13-1h11.64l-.13 1h-5.19l-.53 4.16zm-10.09 0h-10l.68-5.2h10l-.14 1h-8.94l-.13 1h8.92l-.13 1H63l-.13 1h8.92l-.12 1.2zm-20.39-1.65l-5.84-2.31-.5 4h-1l.65-5.2h1.01l5.82 2.29 6.22-2.33h1.06l-.7 5.21h-1l.5-4-6.22 2.34z" fill="#002969"/></svg>