<svg width="32" height="32" fill="none" xmlns="http://www.w3.org/2000/svg"><g clip-path="url(#clip0_3289_811)"><path fill-rule="evenodd" clip-rule="evenodd" d="M16 32c8.837 0 16-7.163 16-16S24.837 0 16 0 0 7.163 0 16s7.163 16 16 16zm5.728-21.56c1.228.111 1.92.863 2.072 2.06.106.836.2 2.033.2 3.32 0 2.26-.2 3.568-.2 3.568-.189 1.193-.765 1.84-1.978 1.978-1.355.153-4.403.223-5.757.223-1.402 0-4.236-.058-5.651-.176-1.217-.102-2.047-.78-2.214-1.99-.121-.88-.2-1.927-.2-3.59 0-1.853.067-2.637.224-3.474.224-1.194.794-1.773 2.095-1.907 1.366-.141 2.657-.212 5.546-.212 1.412 0 4.456.073 5.863.2zm-7.43 3.124v4.6l4.38-2.324-4.38-2.276z" fill="#727271"/></g><defs><clipPath id="clip0_3289_811"><path fill="#fff" d="M0 0h32v32H0z"/></clipPath></defs></svg>