<svg width="72" height="73" fill="none" xmlns="http://www.w3.org/2000/svg"><g clip-path="url(#clip0_1542_4958)"><circle opacity=".07" cx="36" cy="36.127" r="36" fill="#fff"/><g clip-path="url(#clip1_1542_4958)"><path d="M44.337 44.832h-4.702c-.364 0-.713-.146-.97-.406a1.397 1.397 0 01-.402-.982v-4.76a.2.2 0 00-.057-.14.194.194 0 00-.139-.058h-3.135a.194.194 0 00-.138.058.2.2 0 00-.057.14v4.76a1.4 1.4 0 01-.402.982c-.257.26-.606.406-.97.406h-4.703a1.392 1.392 0 01-.97-.406 1.408 1.408 0 01-.401-.982v-9.172a1.394 1.394 0 01.45-1.021l7.838-7.22a1.372 1.372 0 011.842 0l7.837 7.22a1.377 1.377 0 01.451 1.02v9.173c0 .368-.144.721-.402.982-.257.26-.606.406-.97.406zm-9.405-7.536h3.136c.363 0 .712.147.97.407.257.26.401.613.401.981v4.76a.2.2 0 00.057.14.194.194 0 00.139.058h4.703a.204.204 0 00.135-.06.21.21 0 00.06-.138v-9.172a.18.18 0 00-.058-.139l-7.848-7.219a.185.185 0 00-.254 0l-7.838 7.22a.158.158 0 00-.068.138v9.172a.21.21 0 00.06.138.204.204 0 00.136.06h4.702c.052 0 .102-.02.139-.058a.2.2 0 00.057-.14v-4.76c0-.368.144-.72.402-.981.257-.26.606-.407.97-.407z" fill="#fff"/></g></g><defs><clipPath id="clip0_1542_4958"><path fill="#fff" transform="translate(0 .127)" d="M0 0h72v72H0z"/></clipPath><clipPath id="clip1_1542_4958"><path fill="#fff" transform="translate(27 25.127)" d="M0 0h19v20H0z"/></clipPath></defs></svg>