<svg width="72" height="73" fill="none" xmlns="http://www.w3.org/2000/svg"><g clip-path="url(#clip0_1542_4963)"><circle opacity=".07" cx="36" cy="36.127" r="36" fill="#fff"/><path d="M34.916 31.807l-2.538-2.929c-.292-.337-.829-.336-1.168.005l-2.087 2.09c-.62.622-.799 1.545-.44 2.285a21.906 21.906 0 0010.172 10.185c.739.36 1.662.181 2.283-.44l2.105-2.11c.342-.341.343-.88.002-1.173l-2.94-2.524c-.307-.264-.785-.23-1.093.08L38.188 38.3a.346.346 0 01-.414.066 10.918 10.918 0 01-4.02-4.025.347.347 0 01.066-.416l1.02-1.02c.309-.31.342-.79.075-1.098z" stroke="#fff" stroke-linecap="round" stroke-linejoin="round"/></g><defs><clipPath id="clip0_1542_4963"><path fill="#fff" transform="translate(0 .127)" d="M0 0h72v72H0z"/></clipPath></defs></svg>